#Comment line ignore any data following # character 
#Hierarchical Translation and Rotation (.htr) file 
[Header]	
#Header keywords are followed by a single value 
FileType HTR		#Single word string
DataType HTRS		#Translation followed by rotation and scale data
FileVersion 1		#integer
NumSegments 84		#integer
NumFrames 2		#integer
DataFrameRate 30		#integer, data frame rate in this file
EulerRotationOrder ZYX
CalibrationUnits mm
RotationUnits Degrees
GlobalAxisofGravity Y
BoneLengthAxis Y
ScaleFactor 1.00
[SegmentNames&Hierarchy]
#CHILD	PARENT
MASTER GLOBAL
root MASTER
chest root
L_mid_tent01 root
R_mid_tent01 root
spine01 root
Bip01_Neck chest
L_humerus chest
R_humerus chest
weapon_bone chest
Bip01_Head Bip01_Neck
eye_left_bone Bip01_Head
eye_right_bone Bip01_Head
L_forearm L_humerus
L_front_hand L_forearm
L_weapon_bone L_forearm
L_front_hand01_01 L_front_hand
L_front_hand02_01 L_front_hand
L_front_hand03_01 L_front_hand
L_front_hand01_02 L_front_hand01_01
L_front_hand02_02 L_front_hand02_01
L_front_hand03_02 L_front_hand03_01
R_forearm R_humerus
R_front_hand R_forearm
R_weapon_bone R_forearm
R_front_hand01_01 R_front_hand
R_front_hand02_01 R_front_hand
R_front_hand03_01 R_front_hand
R_front_hand01_02 R_front_hand01_01
R_front_hand02_02 R_front_hand02_01
R_front_hand03_02 R_front_hand03_01
null_rope01_connect L_mid_tent01
Rope1_Seg01 null_rope01_connect
Rope1_Seg02 Rope1_Seg01
Rope1_Seg03 Rope1_Seg02
Rope1_Seg04 Rope1_Seg03
Rope1_Seg05 Rope1_Seg04
Rope1_Seg06 Rope1_Seg05
Rope1_Seg07 Rope1_Seg06
Rope1_Seg09 Rope1_Seg07
L_mid_hand01 Rope1_Seg09
L_mid_hand02 Rope1_Seg09
L_mid_hand03 Rope1_Seg09
null_rope02_connect R_mid_tent01
Rope2_Seg01 null_rope02_connect
Rope2_Seg02 Rope2_Seg01
Rope2_Seg03 Rope2_Seg02
Rope2_Seg04 Rope2_Seg03
Rope2_Seg05 Rope2_Seg04
Rope2_Seg06 Rope2_Seg05
Rope2_Seg07 Rope2_Seg06
Rope2_Seg09 Rope2_Seg07
R_mid_hand01 Rope2_Seg09
R_mid_hand02 Rope2_Seg09
R_mid_hand03 Rope2_Seg09
spine02 spine01
spine03 spine02
pelvis spine03
null_rope03_connect pelvis
null_rope04_connect pelvis
Rope3_Seg01 null_rope03_connect
Rope3_Seg02 Rope3_Seg01
Rope3_Seg03 Rope3_Seg02
Rope3_Seg04 Rope3_Seg03
Rope3_Seg05 Rope3_Seg04
Rope3_Seg06 Rope3_Seg05
Rope3_Seg07 Rope3_Seg06
Rope3_Seg08 Rope3_Seg07
Rope3_Seg09 Rope3_Seg08
R_rear_hand01 Rope3_Seg09
R_rear_hand02 Rope3_Seg09
R_rear_hand03 Rope3_Seg09
Rope4_Seg01 null_rope04_connect
Rope4_Seg02 Rope4_Seg01
Rope4_Seg03 Rope4_Seg02
Rope4_Seg04 Rope4_Seg03
Rope4_Seg05 Rope4_Seg04
Rope4_Seg06 Rope4_Seg05
Rope4_Seg07 Rope4_Seg06
Rope4_Seg08 Rope4_Seg07
Rope4_Seg09 Rope4_Seg08
L_rear_hand01 Rope4_Seg09
L_rear_hand02 Rope4_Seg09
L_rear_hand03 Rope4_Seg09
[BasePosition]
#SegmentName Tx, Ty, Tz, Rx, Ry, Rz, BoneLength
MASTER 0.000000 0.000000 0.000000 -90.000000 0.000000 0.000000 10.000000 
root 0.000000 0.000000 0.000000 0.000000 0.000000 0.000000 10.000000 
chest 0.000000 0.000000 0.000000 0.000000 0.000000 0.000000 10.000000 
L_mid_tent01 0.000000 0.000000 0.000000 0.000000 0.000000 0.000000 10.000000 
R_mid_tent01 0.000000 0.000000 0.000000 0.000000 0.000000 0.000000 10.000000 
spine01 0.000000 0.000000 0.000000 0.000000 0.000000 0.000000 10.000000 
Bip01_Neck 0.000000 0.000000 0.000000 0.000000 0.000000 0.000000 10.000000 
L_humerus 0.000000 0.000000 0.000000 0.000000 0.000000 0.000000 10.000000 
R_humerus 0.000000 0.000000 0.000000 0.000000 0.000000 0.000000 10.000000 
weapon_bone 0.000000 0.000000 0.000000 0.000000 0.000000 0.000000 10.000000 
Bip01_Head 0.000000 0.000000 0.000000 0.000000 0.000000 0.000000 10.000000 
eye_left_bone 0.000000 0.000000 0.000000 0.000000 0.000000 0.000000 10.000000 
eye_right_bone 0.000000 0.000000 0.000000 0.000000 0.000000 0.000000 10.000000 
L_forearm 0.000000 0.000000 0.000000 0.000000 0.000000 0.000000 10.000000 
L_front_hand 0.000000 0.000000 0.000000 0.000000 0.000000 0.000000 10.000000 
L_weapon_bone 0.000000 0.000000 0.000000 0.000000 0.000000 0.000000 10.000000 
L_front_hand01_01 0.000000 0.000000 0.000000 0.000000 0.000000 0.000000 10.000000 
L_front_hand02_01 0.000000 0.000000 0.000000 0.000000 0.000000 0.000000 10.000000 
L_front_hand03_01 0.000000 0.000000 0.000000 0.000000 0.000000 0.000000 10.000000 
L_front_hand01_02 0.000000 0.000000 0.000000 0.000000 0.000000 0.000000 10.000000 
L_front_hand02_02 0.000000 0.000000 0.000000 0.000000 0.000000 0.000000 10.000000 
L_front_hand03_02 0.000000 0.000000 0.000000 0.000000 0.000000 0.000000 10.000000 
R_forearm 0.000000 0.000000 0.000000 0.000000 0.000000 0.000000 10.000000 
R_front_hand 0.000000 0.000000 0.000000 0.000000 0.000000 0.000000 10.000000 
R_weapon_bone 0.000000 0.000000 0.000000 0.000000 0.000000 0.000000 10.000000 
R_front_hand01_01 0.000000 0.000000 0.000000 0.000000 0.000000 0.000000 10.000000 
R_front_hand02_01 0.000000 0.000000 0.000000 0.000000 0.000000 0.000000 10.000000 
R_front_hand03_01 0.000000 0.000000 0.000000 0.000000 0.000000 0.000000 10.000000 
R_front_hand01_02 0.000000 0.000000 0.000000 0.000000 0.000000 0.000000 10.000000 
R_front_hand02_02 0.000000 0.000000 0.000000 0.000000 0.000000 0.000000 10.000000 
R_front_hand03_02 0.000000 0.000000 0.000000 0.000000 0.000000 0.000000 10.000000 
null_rope01_connect 0.000000 0.000000 0.000000 0.000000 0.000000 0.000000 10.000000 
Rope1_Seg01 0.000000 0.000000 0.000000 0.000000 0.000000 0.000000 10.000000 
Rope1_Seg02 0.000000 0.000000 0.000000 0.000000 0.000000 0.000000 10.000000 
Rope1_Seg03 0.000000 0.000000 0.000000 0.000000 0.000000 0.000000 10.000000 
Rope1_Seg04 0.000000 0.000000 0.000000 0.000000 0.000000 0.000000 10.000000 
Rope1_Seg05 0.000000 0.000000 0.000000 0.000000 0.000000 0.000000 10.000000 
Rope1_Seg06 0.000000 0.000000 0.000000 0.000000 0.000000 0.000000 10.000000 
Rope1_Seg07 0.000000 0.000000 0.000000 0.000000 0.000000 0.000000 10.000000 
Rope1_Seg09 0.000000 0.000000 0.000000 0.000000 0.000000 0.000000 10.000000 
L_mid_hand01 0.000000 0.000000 0.000000 0.000000 0.000000 0.000000 10.000000 
L_mid_hand02 0.000000 0.000000 0.000000 0.000000 0.000000 0.000000 10.000000 
L_mid_hand03 0.000000 0.000000 0.000000 0.000000 0.000000 0.000000 10.000000 
null_rope02_connect 0.000000 0.000000 0.000000 0.000000 0.000000 0.000000 10.000000 
Rope2_Seg01 0.000000 0.000000 0.000000 0.000000 0.000000 0.000000 10.000000 
Rope2_Seg02 0.000000 0.000000 0.000000 0.000000 0.000000 0.000000 10.000000 
Rope2_Seg03 0.000000 0.000000 0.000000 0.000000 0.000000 0.000000 10.000000 
Rope2_Seg04 0.000000 0.000000 0.000000 0.000000 0.000000 0.000000 10.000000 
Rope2_Seg05 0.000000 0.000000 0.000000 0.000000 0.000000 0.000000 10.000000 
Rope2_Seg06 0.000000 0.000000 0.000000 0.000000 0.000000 0.000000 10.000000 
Rope2_Seg07 0.000000 0.000000 0.000000 0.000000 0.000000 0.000000 10.000000 
Rope2_Seg09 0.000000 0.000000 0.000000 0.000000 0.000000 0.000000 10.000000 
R_mid_hand01 0.000000 0.000000 0.000000 0.000000 0.000000 0.000000 10.000000 
R_mid_hand02 0.000000 0.000000 0.000000 0.000000 0.000000 0.000000 10.000000 
R_mid_hand03 0.000000 0.000000 0.000000 0.000000 0.000000 0.000000 10.000000 
spine02 0.000000 0.000000 0.000000 0.000000 0.000000 0.000000 10.000000 
spine03 0.000000 0.000000 0.000000 0.000000 0.000000 0.000000 10.000000 
pelvis 0.000000 0.000000 0.000000 0.000000 0.000000 0.000000 10.000000 
null_rope03_connect 0.000000 0.000000 0.000000 0.000000 0.000000 0.000000 10.000000 
null_rope04_connect 0.000000 0.000000 0.000000 0.000000 0.000000 0.000000 10.000000 
Rope3_Seg01 0.000000 0.000000 0.000000 0.000000 0.000000 0.000000 10.000000 
Rope3_Seg02 0.000000 0.000000 0.000000 0.000000 0.000000 0.000000 10.000000 
Rope3_Seg03 0.000000 0.000000 0.000000 0.000000 0.000000 0.000000 10.000000 
Rope3_Seg04 0.000000 0.000000 0.000000 0.000000 0.000000 0.000000 10.000000 
Rope3_Seg05 0.000000 0.000000 0.000000 0.000000 0.000000 0.000000 10.000000 
Rope3_Seg06 0.000000 0.000000 0.000000 0.000000 0.000000 0.000000 10.000000 
Rope3_Seg07 0.000000 0.000000 0.000000 0.000000 0.000000 0.000000 10.000000 
Rope3_Seg08 0.000000 0.000000 0.000000 0.000000 0.000000 0.000000 10.000000 
Rope3_Seg09 0.000000 0.000000 0.000000 0.000000 0.000000 0.000000 10.000000 
R_rear_hand01 0.000000 0.000000 0.000000 0.000000 0.000000 0.000000 10.000000 
R_rear_hand02 0.000000 0.000000 0.000000 0.000000 0.000000 0.000000 10.000000 
R_rear_hand03 0.000000 0.000000 0.000000 0.000000 0.000000 0.000000 10.000000 
Rope4_Seg01 0.000000 0.000000 0.000000 0.000000 0.000000 0.000000 10.000000 
Rope4_Seg02 0.000000 0.000000 0.000000 0.000000 0.000000 0.000000 10.000000 
Rope4_Seg03 0.000000 0.000000 0.000000 0.000000 0.000000 0.000000 10.000000 
Rope4_Seg04 0.000000 0.000000 0.000000 0.000000 0.000000 0.000000 10.000000 
Rope4_Seg05 0.000000 0.000000 0.000000 0.000000 0.000000 0.000000 10.000000 
Rope4_Seg06 0.000000 0.000000 0.000000 0.000000 0.000000 0.000000 10.000000 
Rope4_Seg07 0.000000 0.000000 0.000000 0.000000 0.000000 0.000000 10.000000 
Rope4_Seg08 0.000000 0.000000 0.000000 0.000000 0.000000 0.000000 10.000000 
Rope4_Seg09 0.000000 0.000000 0.000000 0.000000 0.000000 0.000000 10.000000 
L_rear_hand01 0.000000 0.000000 0.000000 0.000000 0.000000 0.000000 10.000000 
L_rear_hand02 0.000000 0.000000 0.000000 0.000000 0.000000 0.000000 10.000000 
L_rear_hand03 0.000000 0.000000 0.000000 0.000000 0.000000 0.000000 10.000000 
#Beginning of Data. Separated by tabs
#Fr	Tx	Ty	Tz	Rx	Ry	Rz	SF
[MASTER]
29 0.000000 0.000000 0.000000 0.001660 0.001660 0.001660 0.000000
30 0.000000 0.000000 0.000000 0.001660 0.001660 0.001660 0.000000
[root]
29 -29.617380 -13.452988 1111.468872 -89.280243 -37.711571 -89.188675 1111.944824
30 -26.593822 -17.916716 1102.419189 -89.440346 -38.943302 -89.458961 1102.885376
[chest]
29 -84.512650 -34.090519 0.000000 1.657320 -1.641215 -134.478531 91.129311
30 -84.512650 -34.090519 0.000000 1.748088 -1.738993 -132.962936 91.129311
[L_mid_tent01]
29 27.299500 22.177483 -249.917984 -11.995966 -3.749689 51.522327 252.380859
30 27.299500 22.177483 -249.917984 -12.518540 -6.275501 51.322384 252.380859
[R_mid_tent01]
29 23.228794 24.509907 226.238495 -172.569275 -4.255771 54.095036 228.744751
30 23.228794 24.509907 226.238495 -172.005524 -1.246610 53.888290 228.744751
[spine01]
29 -0.361383 -0.195265 0.000000 0.001914 0.001361 19.184164 0.410763
30 -0.361383 -0.195265 0.000000 0.001915 0.001358 19.314548 0.410763
[Bip01_Neck]
29 165.484543 71.581718 0.000119 175.896118 1.177290 24.871183 180.302734
30 165.484543 71.581718 0.000119 175.896118 1.177290 24.871183 180.302734
[L_humerus]
29 -13.983130 -135.272980 -120.471481 -98.056015 -2.678695 -79.009399 181.680161
30 -13.983130 -135.272980 -120.471481 -84.659637 -4.359030 -78.564987 181.680161
[R_humerus]
29 -13.983309 -135.273102 125.287651 106.452362 -3.452952 -73.662567 184.909012
30 -13.983309 -135.273102 125.287651 91.418007 -1.587479 -71.086365 184.909012
[weapon_bone]
29 235.964890 -300.705902 0.000000 0.000000 -89.951546 -128.212341 382.234833
30 235.964890 -300.705902 0.000000 0.000000 -89.951546 -128.212341 382.234833
[Bip01_Head]
29 102.819786 23.735563 5.410289 3.150732 3.423701 -20.839092 105.662468
30 102.819786 23.735558 5.410294 3.150731 3.423701 -20.839088 105.662468
[eye_left_bone]
29 -24.626970 125.451866 -64.772606 0.000000 -90.000000 -99.840431 143.318359
30 -24.626970 125.451866 -64.772606 0.000000 -90.000000 -99.840431 143.318359
[eye_right_bone]
29 -24.626970 125.451866 64.327362 0.000000 -89.960434 80.159386 143.117676
30 -24.626970 125.451866 64.327362 0.000000 -89.960434 80.159386 143.117676
[L_forearm]
29 322.776093 0.000000 -0.000119 0.000195 0.002339 -80.492577 322.776093
30 322.776093 0.000000 -0.000119 0.000186 0.002340 -80.902420 322.776093
[L_front_hand]
29 241.149185 -0.042021 -3.300071 -177.767242 0.405048 -91.636826 241.171753
30 241.149185 -0.042021 -3.300071 -177.757889 0.334924 -89.896980 241.171753
[L_weapon_bone]
29 156.183838 0.000000 0.000000 0.002063 0.001120 33.003616 156.183838
30 156.183838 0.000000 0.000000 0.002074 0.001099 34.186649 156.183838
[L_front_hand01_01]
29 86.095154 20.947098 -0.655860 0.405585 -0.442306 -4.620490 88.609184
30 86.095154 20.947098 -0.655860 0.405585 -0.442306 -4.620490 88.609184
[L_front_hand02_01]
29 86.935165 -11.437475 24.513514 116.959450 3.630817 1.495453 91.046425
30 86.935165 -11.437475 24.513514 116.959465 3.630818 1.495453 91.046425
[L_front_hand03_01]
29 86.637497 -14.123976 -20.424902 -118.420097 -4.656303 -0.152527 90.126129
30 86.637497 -14.123976 -20.424902 -118.420097 -4.656303 -0.152527 90.126129
[L_front_hand01_02]
29 71.020905 -0.000179 0.000030 0.001534 0.001777 -8.378850 71.020905
30 71.020905 -0.000179 0.000030 0.001534 0.001777 -8.378850 71.020905
[L_front_hand02_02]
29 71.020927 -0.000119 0.000060 0.001534 0.001777 -8.378850 71.020927
30 71.020927 -0.000119 0.000060 0.001534 0.001777 -8.378850 71.020927
[L_front_hand03_02]
29 71.020905 -0.000060 0.000060 0.001534 0.001777 -8.378850 71.020905
30 71.020905 -0.000060 0.000060 0.001534 0.001777 -8.378850 71.020905
[R_forearm]
29 322.776428 -0.000060 0.000030 0.212177 -0.026798 -83.720390 322.776428
30 322.776428 -0.000060 0.000030 0.212384 -0.025107 -84.633423 322.776428
[R_front_hand]
29 238.847015 -0.006795 2.210259 -1.700284 -0.298510 -88.770515 238.857239
30 238.847015 -0.006795 2.210259 -1.700543 -0.298847 -88.775299 238.857239
[R_weapon_bone]
29 155.664093 0.002503 -0.000030 0.003146 0.001911 -116.149017 155.664078
30 155.664093 0.002503 -0.000030 0.003102 0.001981 -118.735779 155.664078
[R_front_hand01_01]
29 87.624611 14.231146 22.918642 -116.960213 3.496675 -1.324139 91.683487
30 87.624611 14.231146 22.918642 -116.960205 3.496675 -1.324138 91.683487
[R_front_hand02_01]
29 89.356956 14.367283 -19.491137 118.419647 -4.257089 0.609827 92.579636
30 89.356956 14.367283 -19.491137 118.419647 -4.257089 0.609827 92.579636
[R_front_hand03_01]
29 87.286232 -22.307278 -0.143439 -0.387970 -0.231462 4.232001 90.091743
30 87.286232 -22.307278 -0.143439 -0.387970 -0.231462 4.232001 90.091743
[R_front_hand01_02]
29 71.020905 0.000060 0.000119 0.001777 0.001534 8.377220 71.020905
30 71.020905 0.000060 0.000119 0.001777 0.001534 8.377220 71.020905
[R_front_hand02_02]
29 71.020844 -0.000030 -0.000119 0.001777 0.001534 8.377220 71.020836
30 71.020844 -0.000030 -0.000119 0.001777 0.001534 8.377220 71.020836
[R_front_hand03_02]
29 71.020905 0.000000 0.000030 0.001777 0.001534 8.377220 71.020905
30 71.020905 0.000000 0.000030 0.001777 0.001534 8.377220 71.020905
[null_rope01_connect]
29 328.732483 0.000000 -0.000238 143.014908 -77.213776 -66.284264 328.732483
30 328.732483 0.000000 -0.000238 137.585510 -75.774887 -59.154678 328.732483
[Rope1_Seg01]
29 0.000000 0.000000 0.000000 124.298615 21.626902 -171.998993 0.000000
30 0.000000 0.000000 0.000000 124.701485 21.896175 -171.017776 0.000000
[Rope1_Seg02]
29 139.999863 -0.000179 0.000000 4.502941 -8.914434 1.075325 139.999863
30 139.999863 -0.000179 0.000000 4.043403 -7.758006 1.086490 139.999863
[Rope1_Seg03]
29 139.999924 0.000060 -0.000060 5.415671 -20.109720 3.718310 139.999924
30 139.999924 0.000060 -0.000060 4.992525 -16.834311 3.672235 139.999924
[Rope1_Seg04]
29 139.999924 -0.000060 -0.000119 1.115890 -42.890877 1.763476 139.999924
30 139.999924 -0.000060 -0.000119 3.104201 -42.800114 1.994820 139.999924
[Rope1_Seg05]
29 139.999832 0.000119 -0.000060 -3.191991 -20.111032 29.168217 139.999832
30 139.999832 0.000119 -0.000060 -6.573877 -23.598944 26.733131 139.999832
[Rope1_Seg06]
29 139.999954 0.000119 -0.000060 66.593460 -6.917799 42.253151 139.999954
30 139.999954 0.000119 -0.000060 71.328842 -8.519186 47.735161 139.999954
[Rope1_Seg07]
29 139.999985 0.000060 0.000000 30.078159 9.374812 8.533720 139.999985
30 139.999985 0.000060 0.000000 30.599815 11.338357 8.729458 139.999985
[Rope1_Seg09]
29 121.602913 0.000119 -0.000089 -89.793175 -1.359789 0.847147 121.602913
30 121.602913 0.000119 -0.000089 -89.793175 -1.359789 0.847147 121.602913
[L_mid_hand01]
29 103.859421 1.038730 8.195221 104.830650 -14.375593 -4.295251 104.187431
30 103.859421 1.038730 8.195221 104.762123 -13.330417 -4.009691 104.187431
[L_mid_hand02]
29 105.572853 -4.139662 -10.864139 -137.398285 14.400653 -14.534439 106.211075
30 105.572853 -4.139662 -10.864139 -137.200043 13.665179 -13.716374 106.211075
[L_mid_hand03]
29 104.641464 17.579376 -3.913581 -18.234213 4.521058 17.361656 106.179977
30 104.641464 17.579376 -3.913581 -18.310577 4.181784 16.331144 106.179977
[null_rope02_connect]
29 328.732849 0.000179 -0.000119 -160.158310 80.544540 -53.415569 328.732849
30 328.732849 0.000179 -0.000119 -179.870987 81.518692 -74.771248 328.732849
[Rope2_Seg01]
29 0.000095 0.000153 0.000043 -60.042629 19.241472 -4.869816 0.000185
30 0.000095 0.000153 0.000044 -60.284260 19.327791 -5.452729 0.000185
[Rope2_Seg02]
29 139.999741 -0.000060 -0.000119 -6.464349 -3.966009 7.730306 139.999756
30 139.999741 -0.000060 -0.000119 -5.665900 -3.593634 6.638252 139.999756
[Rope2_Seg03]
29 140.000107 0.000030 0.000000 -9.644400 -9.768372 16.905010 140.000107
30 140.000107 0.000030 0.000000 -8.047132 -8.887504 13.644958 140.000107
[Rope2_Seg04]
29 139.999802 0.000000 -0.000060 -12.626158 -14.295517 40.605339 139.999802
30 139.999802 0.000000 -0.000060 -14.566516 -13.788293 40.957123 139.999802
[Rope2_Seg05]
29 139.999985 -0.000060 0.000119 -7.399436 -43.938736 -8.606225 139.999985
30 139.999985 -0.000060 0.000119 -6.303328 -42.002090 -0.987629 139.999985
[Rope2_Seg06]
29 139.999893 -0.000030 -0.000119 -29.484268 -30.070715 -26.704306 139.999893
30 139.999893 -0.000030 -0.000119 -31.245541 -35.480640 -30.741606 139.999893
[Rope2_Seg07]
29 139.999893 0.000060 -0.000060 -8.947666 -4.049460 -8.152490 139.999893
30 139.999893 0.000060 -0.000060 -9.526640 -4.245844 -9.125751 139.999893
[Rope2_Seg09]
29 121.338966 0.000089 -0.000060 33.793236 -1.359788 -0.847141 121.338966
30 121.338966 0.000089 -0.000060 33.793236 -1.359788 -0.847141 121.338966
[R_mid_hand01]
29 104.680779 11.144459 -10.335981 -45.949730 13.457609 15.414858 105.778534
30 104.680779 11.144459 -10.335981 -46.117088 12.719419 14.686087 105.778534
[R_mid_hand02]
29 104.070427 2.443552 8.231699 75.029961 -16.177547 4.792259 104.424065
30 104.070427 2.443552 8.231699 75.105629 -15.187328 4.518147 104.424065
[R_mid_hand03]
29 106.028137 -11.221827 -5.996406 -165.448898 6.257336 -20.070375 106.788818
30 106.028137 -11.221827 -5.996406 -165.343857 6.000367 -19.073721 106.788818
[spine02]
29 129.756927 0.001550 0.000119 -1.425678 -3.843230 12.520472 129.756927
30 129.756927 0.001550 0.000119 -1.481420 -3.829974 13.304090 129.756927
[spine03]
29 78.894783 0.038403 -2.155470 -0.603465 4.738043 -16.329062 78.924232
30 78.904823 0.036658 -2.057494 -0.554267 4.794428 -15.687777 78.931648
[pelvis]
29 169.435242 0.051022 0.000000 -3.991314 -1.929455 6.953410 169.435257
30 169.435242 0.051022 0.000000 -4.138456 -1.980071 7.272259 169.435257
[null_rope03_connect]
29 -1.257226 -2.466202 137.391083 165.752472 -85.493240 -60.241238 137.418976
30 -1.257226 -2.466202 137.391083 171.034561 -85.261787 -66.160538 137.418976
[null_rope04_connect]
29 -1.259640 -2.480268 -137.844437 165.752472 -85.493240 -60.241238 137.872513
30 -1.259640 -2.480268 -137.844437 171.034561 -85.261787 -66.160538 137.872513
[Rope3_Seg01]
29 0.000000 0.000000 0.000000 -134.870483 24.277811 -85.394638 0.000000
30 0.000000 0.000000 0.000000 -136.830582 30.197523 -86.508553 0.000000
[Rope3_Seg02]
29 139.999924 -0.000119 0.000060 -43.597118 -81.724693 59.927269 139.999924
30 139.999924 -0.000119 0.000060 -19.060234 -57.268539 26.097937 139.999924
[Rope3_Seg03]
29 139.999924 -0.000119 0.000119 12.789041 -58.608105 33.021088 139.999924
30 139.999924 -0.000119 0.000119 -7.854904 -73.428215 42.555622 139.999924
[Rope3_Seg04]
29 139.999924 0.000119 0.000000 3.655612 -7.019218 14.821950 139.999924
30 139.999924 0.000119 0.000000 4.878813 -12.584282 15.592443 139.999924
[Rope3_Seg05]
29 139.999924 -0.000238 0.000060 1.267993 -3.005800 7.082792 139.999924
30 139.999924 -0.000238 0.000060 2.216038 -7.208664 11.215947 139.999924
[Rope3_Seg06]
29 139.999893 -0.000119 -0.000060 0.871372 -1.626711 3.927340 139.999893
30 139.999893 -0.000119 -0.000060 1.151850 -3.405964 5.461933 139.999893
[Rope3_Seg07]
29 139.999771 0.000060 -0.000119 0.743442 -1.064646 2.695518 139.999771
30 139.999771 0.000060 -0.000119 0.870354 -2.128719 3.587267 139.999771
[Rope3_Seg08]
29 139.999985 -0.000060 0.000000 0.655040 -0.641102 1.684586 139.999985
30 139.999985 -0.000060 0.000000 0.706384 -1.213466 2.121108 139.999985
[Rope3_Seg09]
29 90.185997 -0.000179 -0.000060 89.793228 -1.359877 -0.847183 90.185997
30 90.185997 -0.000179 -0.000060 89.793228 -1.359877 -0.847183 90.185997
[R_rear_hand01]
29 103.366196 -6.073594 -10.757982 -157.907288 11.256098 -15.092482 104.101845
30 103.366196 -6.073594 -10.757982 -157.737244 10.903135 -14.204093 104.101845
[R_rear_hand02]
29 100.509819 12.039542 -7.992327 -37.601807 10.141744 15.899503 101.543350
30 100.509819 12.039542 -7.992327 -37.729431 9.567973 15.144063 101.543350
[R_rear_hand03]
29 101.539970 5.215704 5.435467 84.096489 -15.505945 5.448215 101.819031
30 101.539970 5.215704 5.435467 84.122543 -14.571123 5.348557 101.819031
[Rope4_Seg01]
29 0.000000 0.000000 0.000000 64.623795 43.663944 -81.981544 0.000000
30 0.000000 0.000000 0.000000 67.424995 47.706676 -80.849358 0.000000
[Rope4_Seg02]
29 139.999985 0.000060 0.000119 3.235626 -1.365688 -9.031724 139.999985
30 139.999985 0.000060 0.000119 2.851056 -0.159558 -7.056551 139.999985
[Rope4_Seg03]
29 139.999924 0.000000 -0.000238 -14.420240 -17.444229 -113.680313 139.999924
30 139.999924 0.000000 -0.000238 -3.081615 -9.210072 -97.618202 139.999924
[Rope4_Seg04]
29 139.999985 0.000000 0.000119 -31.813984 21.562321 -26.462065 139.999985
30 139.999985 0.000000 0.000119 -38.442940 11.804253 -45.788574 139.999985
[Rope4_Seg05]
29 139.999802 -0.000060 -0.000119 -0.339304 9.487345 3.308920 139.999802
30 139.999802 -0.000060 -0.000119 -2.059254 9.498549 -0.075129 139.999802
[Rope4_Seg06]
29 139.999924 0.000000 0.000060 -0.380395 3.465170 0.291983 139.999924
30 139.999924 0.000000 0.000060 -0.842673 3.660833 -0.871446 139.999924
[Rope4_Seg07]
29 139.999802 0.000000 0.000000 -0.118302 2.148421 0.197306 139.999802
30 139.999802 0.000000 0.000000 -0.369464 2.270281 -0.505275 139.999802
[Rope4_Seg08]
29 139.999924 0.000000 0.000119 -1.589700 1.269538 0.117597 139.999924
30 139.999924 0.000000 0.000119 -1.718085 1.342716 -0.290536 139.999924
[Rope4_Seg09]
29 90.185791 0.000060 0.000060 -135.617828 2.228885 0.850567 90.185791
30 90.185791 0.000060 0.000060 -135.617828 2.228885 0.850567 90.185791
[L_rear_hand01]
29 101.696655 -8.392275 -7.654577 -37.898281 -8.762405 165.910049 102.329041
30 101.696655 -8.392275 -7.654577 -38.018696 -8.128063 166.730606 102.329041
[L_rear_hand02]
29 102.726799 -1.568258 5.773216 84.154366 13.264277 174.793335 102.900848
30 102.726799 -1.568258 5.773216 84.179504 12.238798 174.901031 102.900848
[L_rear_hand03]
29 104.552910 9.721220 -10.420293 -157.509171 -10.401767 -167.031967 105.519653
30 104.552910 9.721220 -10.420293 -157.337662 -10.005807 -167.998566 105.519653
